<svg xmlns="http://www.w3.org/2000/svg" viewBox="0 0 150 150"><switch><g><g fill="#FDFDFE"><path d="M-26.232-81.051c0-.702.072-1.386.217-2.052a19.67 19.67 0 01.621-2.188c.27-.737.782-1.476 1.538-2.214a10.388 10.388 0 012.538-1.822c.936-.477 1.782-.716 2.538-.716.774 0 1.53.284 2.269.851.737.567 1.205 1.211 1.403 1.931.036.216.054.36.054.432 0 .271-.076.473-.229.608-.154.135-.355.202-.607.202-.199 0-.352-.009-.459-.027-.055 0-.136-.035-.244-.107-.521-.288-1.025-.433-1.512-.433-.918 0-1.827.478-2.727 1.432-1.53 1.602-2.295 3.51-2.295 5.724 0 .792.08 1.558.242 2.295.18.828.5 1.436.959 1.822.459.388 1.075.581 1.85.581.27 0 .566-.027.891-.081a8.3 8.3 0 003.133-1.04c.953-.549 2.006-1.282 3.158-2.2.271-.216.747-.666 1.432-1.35l.539-.567c.234-.233.438-.4.607-.499a.96.96 0 01.473-.148c.234 0 .522.117.865.351.377.27.566.612.566 1.026 0 .288-.1.558-.297.81-.072.126-.27.419-.594.878s-.64.868-.945 1.229a7.495 7.495 0 01-.918.918c-1.656 1.458-3.385 2.439-5.184 2.943a9.008 9.008 0 01-2.377.324c-1.457 0-2.75-.369-3.874-1.107a7.696 7.696 0 01-2.633-2.903 8.172 8.172 0 01-.972-3.739v-.54a5.314 5.314 0 01-.026-.624zM-2.526-73.437a4.626 4.626 0 01-2.282-.608 4.486 4.486 0 01-1.74-1.741c-.433-.757-.613-1.62-.541-2.593l.135-.647c.108-.648.198-1.125.271-1.432.162-.665.485-1.134.972-1.403.486-.271 1.135-.486 1.944-.648a7.647 7.647 0 011.539-.162c1.583 0 2.916.531 3.996 1.594.575.576.864 1.277.864 2.105 0 .81-.297 1.684-.892 2.619C1.055-75.29.272-74.49-.609-73.949c-.559.342-1.198.512-1.917.512zm-1.269-5.238l-.271.811.188.081c0 .126.004.319.014.58s.041.481.095.661c.198.559.423.9.675 1.026.108.054.266.027.473-.081s.392-.233.554-.378c.251-.216.657-.666 1.215-1.35A2.444 2.444 0 00-.231-79c0-.558-.157-1.062-.473-1.512a2.347 2.347 0 00-1.31-.918 1.082 1.082 0 00-.297-.027c-.342 0-.531.055-.566.162a31.603 31.603 0 00-.918 2.62zM8.017-83.022c.188.18.284.423.284.729 0 .145-.027.334-.082.567-.197.81-.306 1.62-.324 2.43-.018.918.127 1.765.433 2.538.108.271.212.464.311.581s.22.175.364.175c.18 0 .414-.162.702-.485.666-.792 1.161-1.584 1.485-2.376s.521-1.611.594-2.457c.055-.558.145-.909.27-1.054.072-.071.189-.116.352-.135.162-.018.396-.026.702-.026.485.036.823.08 1.013.135.188.054.318.145.391.27.072.126.108.334.108.621l-.026 1.27c0 .27-.01.666-.027 1.188-.055 1.62-.1 2.826-.135 3.618-.019.63-.207 1.422-.567 2.376-.036.054-.136.131-.297.229a1.184 1.184 0 01-.433.176c-.035 0-.112-.059-.229-.176a1.714 1.714 0 01-.257-.311 14.136 14.136 0 01-.433-1.162L12-74.814l-.054-.162-.081.081-.433.27a2.82 2.82 0 01-.701.433c-.414.252-.909.378-1.485.378-.72 0-1.403-.204-2.052-.608a4.348 4.348 0 01-1.539-1.661c-.612-1.08-.918-2.33-.918-3.753 0-.72.099-1.629.297-2.727.035-.271.207-.504.514-.702.27-.198.584-.297.944-.297.18 0 .368.027.567.081.449.126.769.279.958.459zM25.175-73.45a3.427 3.427 0 01-1.863.526c-.144 0-.342-.018-.594-.054l-.54.027c-2.268.018-3.924-1.063-4.968-3.241-.234-.504-.351-1.107-.351-1.81 0-.611.09-1.196.27-1.755.18-.558.432-1.017.756-1.377l.513-.621c.252-.323.45-.549.595-.675.63-.611 1.467-.918 2.511-.918.54 0 1.07.091 1.593.271s.981.423 1.377.729c.072.054.145.167.216.338.072.171.108.311.108.418 0 .145-.108.302-.324.473s-.414.248-.594.229c-1.225-.144-2.205.148-2.943.878-.738.729-1.106 1.724-1.106 2.983 0 .828.176 1.413.526 1.755s.932.513 1.741.513c.504 0 .981-.104 1.432-.311a13.38 13.38 0 001.565-.877l.514-.324c.18-.09.418-.148.715-.176s.526-.049.688-.067c-.018.162-.022.319-.014.473s.014.274.014.364c0 .396-.063.657-.188.783-.542.613-1.092 1.095-1.649 1.446zM32.641-82.252c.081 1.125.273 2.317.58 3.577.756-.27 1.449-.405 2.079-.405 1.062 0 1.979.315 2.754.945a4.629 4.629 0 011.566 2.35c.216.684.323 1.602.323 2.754l-.026 2.105c0 .126-.072.271-.216.433-.145.161-.288.261-.433.297a.825.825 0 01-.243.026c-.414 0-.846-.202-1.296-.607-.45-.404-.684-.806-.702-1.201l-.054-1.404c0-.324-.018-.792-.054-1.405-.036-.629-.108-1.079-.216-1.35-.108-.306-.243-.54-.405-.702s-.342-.243-.54-.243c-.145 0-.302.063-.473.189s-.319.297-.445.513c-.378.595-.873 1.765-1.485 3.511-.198.63-.549.944-1.053.944a2.37 2.37 0 01-.351-.054 12.267 12.267 0 00-.621-.176c-.307-.081-.545-.211-.716-.392-.171-.18-.257-.44-.257-.783 0-3.402-.207-6.219-.62-8.451-.199-1.116-.298-2.403-.298-3.861v-2.754c0-.252.136-.468.405-.648.271-.18.576-.27.918-.27.288 0 .531.063.729.188.359.217.616.486.77.811.152.324.229.729.229 1.215v.54c.02 1.747.07 3.183.151 4.308zM46.748-76.191a4.71 4.71 0 01-.459-.027 1.941 1.941 0 00-.459 0c.144.594.485 1.076 1.025 1.444.54.369 1.143.554 1.81.554.575 0 1.089-.126 1.538-.378a7.26 7.26 0 001.729-1.215c.342-.342.666-.513.972-.513.198 0 .369.099.514.297.144.233.216.522.216.863 0 .36-.072.64-.216.838-.469.72-1.076 1.215-1.823 1.485-.747.271-1.615.405-2.605.405-1.025 0-2.016-.225-2.97-.675s-1.769-1.067-2.443-1.85-1.12-1.651-1.337-2.605a6.574 6.574 0 01-.216-1.647c0-.846.238-1.529.716-2.052.477-.521 1.246-1.017 2.309-1.485.972-.413 1.872-.621 2.7-.621a5.6 5.6 0 011.728.271c1.728.54 2.592 1.278 2.592 2.214 0 .594-.351 1.314-1.053 2.16a5.75 5.75 0 01-1.215 1.053c-.469.307-.923.581-1.363.823l-.905.5c-.182.107-.444.161-.785.161zm1.714-5.387a1.364 1.364 0 01-.202-.121c-.486-.036-.981.104-1.485.418a4.206 4.206 0 00-1.255 1.201c-.334.486-.5.955-.5 1.404l.027.216c.018.072.112.162.283.271.171.107.274.145.311.107 1.278-.953 2.241-1.719 2.889-2.295.108-.107.162-.306.162-.594 0-.18-.009-.306-.026-.378-.02-.089-.087-.165-.204-.229zM58.844-82.752l-.324 3.187c.09-.072.225-.328.405-.77.18-.441.351-.801.513-1.08s.287-.463.378-.554c.846-.81 1.8-1.296 2.862-1.458 1.062-.162 2.231-.233 3.51-.216.126 0 .266.05.418.148.153.1.229.18.229.243s-.054.162-.161.297c-.108.135-.208.221-.298.257-1.08.36-2.029.773-2.848 1.241a7.255 7.255 0 00-2.12 1.837c-1.404 1.781-2.214 3.617-2.43 5.508-.054.504-.207.842-.459 1.012-.253.172-.604.257-1.053.257-.505 0-.955-.216-1.351-.647-.396-.433-.594-.91-.594-1.432a995.3 995.3 0 00.027-8.586c0-.521.116-.886.351-1.094.233-.206.657-.311 1.269-.311.45 0 .833.127 1.147.379.315.252.481.566.5.944.055.181.064.46.029.838zM67.348-73.49c.144 0 .338.004.581.013.242.01.445.032.607.068.252.036.432.054.54.054.81 0 1.484-.36 2.024-1.081.378-.521.567-1.053.567-1.593 0-.36-.091-.711-.271-1.054a32.925 32.925 0 00-1.458-2.321 36.536 36.536 0 01-1.025-1.594 3.542 3.542 0 01-.54-1.917c0-.647.185-1.219.554-1.714.368-.495.913-.806 1.633-.932l.864-.162c.936-.18 1.638-.27 2.106-.27.773 0 1.458.18 2.052.54.126.09.256.247.392.472.135.226.238.401.311.527-.127.054-.302.14-.527.256a1.725 1.725 0 01-.58.203c-.252.036-.63.054-1.134.054-.486 0-.855.009-1.107.026-.576.055-1.03.248-1.363.581s-.499.733-.499 1.201c0 .36.107.729.323 1.107.486.81 1.161 1.737 2.025 2.781.647.81.972 1.646.972 2.511 0 .468-.107.963-.324 1.484-.738 1.801-2.016 2.701-3.834 2.701-1.512.002-2.475-.645-2.889-1.941z"/></g><g fill="#F7FCFC"><path d="M-132.769-94.867a5.456 5.456 0 110 10.911 5.456 5.456 0 010-10.911m-14.038 5.456c0 7.753 14.038 35.071 14.038 35.071s14.039-27.317 14.039-35.071c0-7.754-6.285-14.039-14.039-14.039-7.753 0-14.038 6.285-14.038 14.039M-46.697-89.411a5.455 5.455 0 11-10.911-.001 5.455 5.455 0 0110.911.001m-5.457-14.039c-7.753 0-14.038 6.285-14.038 14.039 0 7.753 14.038 35.071 14.038 35.071s14.038-27.317 14.038-35.071c.001-7.754-6.284-14.039-14.038-14.039"/><path d="M-91.939-56.664h-35.522c5.141-10.823 12.165-26.73 12.165-32.849 0-9.649-7.821-17.473-17.471-17.473l-.167.001.01-.001c.079-10.819 8.873-19.567 19.712-19.567H-71.711c10.839 0 19.634 8.748 19.712 19.567l.01.001-.166-.001c-9.65 0-17.472 7.824-17.472 17.473 0 6.119 7.025 22.026 12.165 32.849H-91.939zm-13.46-20.079c.877.845 3.757 2.491 7.976 3.067 4.221.574 9.751.66 15.171-2.551 5.42-3.211 5.121-5.69 4.831-6.107-.289-.417-.472-.758-2.882 1.061-2.409 1.822-6.185 4.086-12.139 4.42-5.954.333-9.922-1.501-12.177-2.062-2.254-.562-1.658 1.327-.78 2.172"/></g><path fill="#00A398" d="M-181.5 179h150v150h-150z"/><g fill="#FFF"><path d="M-146.807 249.579a5.456 5.456 0 110 10.911 5.456 5.456 0 010-10.911m-14.039 5.457c0 7.753 14.038 35.071 14.038 35.071s14.039-27.317 14.039-35.071c0-7.754-6.285-14.039-14.039-14.039-7.753-.001-14.038 6.285-14.038 14.039M-60.736 255.036a5.455 5.455 0 11-10.911-.001 5.455 5.455 0 0110.911.001m-5.457-14.039c-7.753 0-14.038 6.285-14.038 14.039 0 7.753 14.038 35.071 14.038 35.071s14.038-27.317 14.038-35.071c.001-7.754-6.284-14.039-14.038-14.039"/><path d="M-105.977 287.783H-141.5c5.141-10.823 12.165-26.73 12.165-32.849 0-9.649-7.821-17.473-17.471-17.473l-.167.001.01-.001c.079-10.819 8.873-19.567 19.712-19.567H-85.75c10.839 0 19.634 8.748 19.712 19.567l.01.001-.166-.001c-9.65 0-17.472 7.824-17.472 17.473 0 6.119 7.025 22.026 12.165 32.849h-34.476zm-13.461-20.079c.877.845 3.757 2.491 7.976 3.067 4.221.574 9.751.66 15.171-2.551 5.42-3.211 5.121-5.69 4.831-6.107-.289-.417-.472-.758-2.882 1.061-2.409 1.822-6.185 4.086-12.139 4.42-5.954.333-9.922-1.501-12.177-2.062-2.254-.562-1.657 1.327-.78 2.172"/></g><path fill="#F8982E" d="M0 179h150v150H0z"/><g fill="#FFF"><path d="M35.714 249.692a5.317 5.317 0 11.001 10.635 5.317 5.317 0 01-.001-10.635m-13.682 5.318c0 7.557 13.683 34.182 13.683 34.182s13.684-26.625 13.684-34.182c0-7.558-6.126-13.684-13.684-13.684-7.557 0-13.683 6.126-13.683 13.684M119.604 255.01a5.317 5.317 0 11-10.634 0 5.317 5.317 0 0110.634 0m-5.318-13.684c-7.557 0-13.683 6.126-13.683 13.684 0 7.557 13.683 34.182 13.683 34.182s13.683-26.625 13.683-34.182c-.001-7.558-6.127-13.684-13.683-13.684"/><path d="M75.509 286.926H40.888c5.011-10.549 11.857-26.053 11.857-32.017 0-9.405-7.623-17.03-17.028-17.03l-.163.001.01-.001c.077-10.545 8.648-19.071 19.212-19.071H95.226c10.564 0 19.137 8.527 19.212 19.071l.01.001-.162-.001c-9.406 0-17.029 7.625-17.029 17.03 0 5.964 6.847 21.468 11.857 32.017H75.509zM62.39 267.357c.855.824 3.662 2.428 7.774 2.989 4.114.56 9.503.643 14.786-2.486 5.283-3.13 4.991-5.546 4.709-5.953s-.46-.739-2.809 1.034c-2.348 1.775-6.028 3.983-11.832 4.308-5.804.324-9.671-1.463-11.868-2.01s-1.615 1.294-.76 2.118"/></g><g><g fill="#F8982E"><path d="M34.693 70.579a5.456 5.456 0 110 10.911 5.456 5.456 0 010-10.911m-14.039 5.457c0 7.753 14.038 35.071 14.038 35.071S48.731 83.79 48.731 76.036c0-7.754-6.285-14.039-14.039-14.039-7.753-.001-14.038 6.285-14.038 14.039M120.764 76.036a5.455 5.455 0 11-10.911-.001 5.455 5.455 0 0110.911.001m-5.457-14.039c-7.753 0-14.038 6.285-14.038 14.039 0 7.753 14.038 35.071 14.038 35.071s14.038-27.317 14.038-35.071c.001-7.754-6.284-14.039-14.038-14.039"/><path d="M75.523 108.783H40c5.141-10.823 12.165-26.73 12.165-32.849 0-9.649-7.821-17.473-17.471-17.473l-.167.001.01-.001c.079-10.819 8.873-19.567 19.712-19.567H95.75c10.839 0 19.634 8.748 19.712 19.567l.01.001-.166-.001c-9.65 0-17.472 7.824-17.472 17.473 0 6.119 7.025 22.026 12.165 32.849H75.523zM62.062 88.704c.877.845 3.757 2.491 7.976 3.067 4.221.574 9.751.66 15.171-2.551 5.42-3.211 5.121-5.69 4.831-6.107-.289-.417-.472-.758-2.882 1.061-2.409 1.822-6.185 4.086-12.139 4.42-5.954.333-9.922-1.501-12.177-2.062-2.254-.562-1.657 1.327-.78 2.172"/></g></g><g><g fill="#00A398"><path d="M-146.807 70.579a5.456 5.456 0 110 10.911 5.456 5.456 0 010-10.911m-14.039 5.457c0 7.753 14.038 35.071 14.038 35.071s14.039-27.317 14.039-35.071c0-7.754-6.285-14.039-14.039-14.039-7.753-.001-14.038 6.285-14.038 14.039M-60.736 76.036a5.455 5.455 0 11-10.911-.001 5.455 5.455 0 0110.911.001m-5.457-14.039c-7.753 0-14.038 6.285-14.038 14.039 0 7.753 14.038 35.071 14.038 35.071s14.038-27.317 14.038-35.071c.001-7.754-6.284-14.039-14.038-14.039"/><path d="M-105.977 108.783H-141.5c5.141-10.823 12.165-26.73 12.165-32.849 0-9.649-7.821-17.473-17.471-17.473l-.167.001.01-.001c.079-10.819 8.873-19.567 19.712-19.567H-85.75c10.839 0 19.634 8.748 19.712 19.567l.01.001-.166-.001c-9.65 0-17.472 7.824-17.472 17.473 0 6.119 7.025 22.026 12.165 32.849h-34.476zm-13.461-20.079c.877.845 3.757 2.491 7.976 3.067 4.221.574 9.751.66 15.171-2.551 5.42-3.211 5.121-5.69 4.831-6.107-.289-.417-.472-.758-2.882 1.061-2.409 1.822-6.185 4.086-12.139 4.42-5.954.333-9.922-1.501-12.177-2.062-2.254-.562-1.657 1.327-.78 2.172"/></g></g></g></switch></svg>