<svg xmlns="http://www.w3.org/2000/svg" xmlns:xlink="http://www.w3.org/1999/xlink" width="100%" height="100%" clipboard-id="document_1bs6v2b"><defs>
            
        </defs><path d="M 9.203248023986816 0.45652514696121216 C 7.481440544128418 0.4115103781223297 6.277962684631348 1.323775053024292 5.932363510131836 1.6073598861694336 C 5.0183939933776855 2.362077474594116 4.659193515777588 3.2293319702148438 4.037729263305664 4.732752799987793 C 3.507234811782837 6.018661022186279 3.628488063812256 6.201718807220459 3.0964784622192383 7.690155029296875 C 2.49928879737854 9.358601570129395 2.284059762954712 9.30009937286377 1.4079798460006714 11.4202299118042 C 0.47885242104530334 13.667874336242676 0.30454400181770325 14.73769760131836 0.5637304186820984 15.792510032653809 C 0.6455786824226379 16.12860107421875 0.8289777040481567 16.842817306518555 1.2776285409927368 16.949357986450195 C 1.96878981590271 17.11440086364746 2.467458486557007 15.643980026245117 3.2920010089874268 15.66344928741455 C 4.471222400665283 15.691972732543945 4.781929016113281 18.730350494384766 5.852025985717773 18.800861358642578 C 7.038853645324707 18.87887954711914 7.687561988830566 15.207352638244629 8.983478546142578 15.220816612243652 C 10.264245986938477 15.234328269958496 10.867507934570312 18.832386016845703 11.964900016784668 18.748363494873047 C 12.974355697631836 18.67184829711914 13.356303215026855 15.556953430175781 14.368806838989258 15.597440719604492 C 14.45064640045166 15.600442886352539 14.856840133666992 15.878033638000488 15.66777229309082 16.43316650390625 C 16.343774795532227 16.896814346313477 16.52414894104004 17.027374267578125 16.739368438720703 16.97933578491211 C 17.236499786376953 16.869792938232422 17.412324905395508 15.91701889038086 17.45326805114746 15.693473815917969 C 17.735177993774414 14.166006088256836 17.10161781311035 12.91317081451416 16.446813583374023 11.417227745056152 C 16.060317993164062 10.533464431762695 15.6359281539917 9.40213680267334 14.79015064239502 7.140981674194336 C 13.41844367980957 3.4739034175872803 13.485135078430176 2.7011802196502686 12.393839836120605 1.7438981533050537 C 12.099782943725586 1.4903240203857422 10.9402494430542 0.5015344619750977 9.203248023986816 0.45652514696121216 Z " stroke="#313539" stroke-width="0.6823724369313795" stroke-miterlimit="10" stroke-linecap="round" stroke-linejoin="round" fill="none" transform="matrix(1 0 0 1 3.01151 2.3715)" class=""/><path d="M 6.001646995544434 4.295038223266602 L 7.62391996383667 5.406027317047119 C 7.732553482055664 5.48063325881958 7.737147808074951 5.6425371170043945 7.633063793182373 5.723466873168945 L 6.186797618865967 6.855113506317139 " stroke="#313539" stroke-width="0.6823724369313795" stroke-miterlimit="10" stroke-linecap="round" stroke-linejoin="round" fill="none" transform="matrix(1 0 0 1 3.01151 2.3715)" class=""/><path d="M 11.548698425292969 4.295038223266602 L 9.92642593383789 5.406027317047119 C 9.81774616241455 5.48063325881958 9.813152313232422 5.6425371170043945 9.917236328125 5.723466873168945 L 11.363502502441406 6.855113506317139 " stroke="#313539" stroke-width="0.6823724369313795" stroke-miterlimit="10" stroke-linecap="round" stroke-linejoin="round" fill="none" transform="matrix(1 0 0 1 3.01151 2.3715)" class=""/></svg>