<svg xmlns="http://www.w3.org/2000/svg">
  <path d="M12.215 2.828c-1.722-.045-2.926.867-3.271 1.15-.914.756-1.273 1.623-1.895 3.126-.53 1.286-.409 1.47-.941 2.958-.597 1.668-.812 1.61-1.689 3.73-.929 2.247-1.103 3.317-.844 4.372.082.336.265 1.05.714 1.157.691.165 1.19-1.306 2.015-1.286 1.179.028 1.49 3.067 2.56 3.137 1.186.078 1.835-3.593 3.131-3.58 1.28.014 1.884 3.612 2.981 3.528 1.01-.077 1.392-3.192 2.404-3.151.082.003.488.28 1.3.836.675.463.856.594 1.07.546.498-.11.674-1.062.715-1.286.282-1.527-.352-2.78-1.007-4.276-.386-.884-.81-2.015-1.656-4.277-1.372-3.667-1.305-4.44-2.397-5.397-.294-.253-1.453-1.242-3.19-1.287z" stroke="#313539" stroke-width=".682" stroke-miterlimit="10" stroke-linecap="round" stroke-linejoin="round" fill="none"/>
  <path d="M9.013 6.667l1.622 1.11a.198.198 0 01.01.318L9.198 9.227M14.56 6.667l-1.622 1.11a.198.198 0 00-.01.318l1.447 1.132" stroke="#313539" stroke-width=".682" stroke-miterlimit="10" stroke-linecap="round" stroke-linejoin="round" fill="none"/>
</svg>