<svg xmlns="http://www.w3.org/2000/svg" xmlns:xlink="http://www.w3.org/1999/xlink" width="100%" height="100%" clipboard-id="document_1bs6v2b"><defs>
            
        </defs><path d="M 19.91948127746582 4.699799537658691 C 19.812231063842773 4.592464447021484 19.63823127746582 4.592464447021484 19.530879974365234 4.699799537658691 L 17.819232940673828 6.411499500274658 C 17.774682998657227 6.45604944229126 17.7468318939209 6.514549732208252 17.74028205871582 6.577249526977539 C 17.604032516479492 7.881049633026123 17.01853370666504 9.109600067138672 16.091535568237305 10.036499977111816 L 15.684784889221191 10.443249702453613 L 12.729387283325195 7.487799644470215 C 12.916337966918945 7.531949520111084 13.099287986755371 7.554299354553223 13.276987075805664 7.554299354553223 C 13.537586212158203 7.554299354553223 13.787036895751953 7.506649494171143 14.021336555480957 7.410749435424805 C 14.161835670471191 7.353299617767334 14.229085922241211 7.1927995681762695 14.171635627746582 7.052399635314941 C 14.11418628692627 6.911849498748779 13.95363712310791 6.844699382781982 13.813236236572266 6.902099609375 C 12.681587219238281 7.365049362182617 11.376938819885254 6.132899761199951 11.212638854980469 5.971099376678467 L 10.427339553833008 5.185799598693848 C 10.524839401245117 4.772344589233398 10.440689086914062 4.328619480133057 10.18998908996582 3.968130111694336 C 9.906540870666504 3.5606698989868164 9.4559907913208 3.327014923095703 8.951841354370117 3.327014923095703 L 7.049792289733887 3.340625047683716 C 7.048092365264893 3.340625047683716 7.046392440795898 3.340625047683716 7.044742584228516 3.340625047683716 C 6.862692832946777 3.340625047683716 6.691442966461182 3.2700650691986084 6.562142848968506 3.141629934310913 C 6.431643009185791 3.0120151042938232 6.359743118286133 2.8393149375915527 6.359793186187744 2.655284881591797 L 6.359793186187744 2.6266651153564453 C 6.359893321990967 2.257469892501831 6.648993015289307 1.9568450450897217 7.017942428588867 1.9422999620437622 L 10.481739044189453 1.8058350086212158 C 11.731788635253906 1.7566250562667847 12.977787971496582 2.1362650394439697 13.988336563110352 2.8747849464416504 C 14.097786903381348 2.9546849727630615 14.249035835266113 2.9430201053619385 14.344785690307617 2.847219944000244 L 16.163984298706055 1.027994990348816 C 16.27133560180664 0.9207000136375427 16.27133560180664 0.7466899752616882 16.164033889770508 0.639394998550415 C 16.056684494018555 0.5320550203323364 15.882734298706055 0.5320550203323364 15.775384902954102 0.639394998550415 L 14.11933708190918 2.295520067214966 C 13.045587539672852 1.573485016822815 11.755288124084473 1.2057249546051025 10.460089683532715 1.2566649913787842 L 6.996292591094971 1.3931349515914917 C 6.988092422485352 1.39347505569458 6.980142593383789 1.3941899538040161 6.972042560577393 1.394700050354004 L 5.657793998718262 0.08050398528575897 C 5.5504937171936035 -0.02683476358652115 5.376494407653809 -0.02683476358652115 5.26919412612915 0.08050398528575897 C 5.16189432144165 0.18780098855495453 5.16189432144165 0.36180949211120605 5.26919412612915 0.469105988740921 L 6.3832926750183105 1.5831650495529175 C 6.037543296813965 1.801900029182434 5.8103437423706055 2.1872498989105225 5.810243606567383 2.6266250610351562 L 5.810243606567383 2.655245065689087 C 5.810143947601318 2.9867749214172363 5.939643383026123 3.2980101108551025 6.1748433113098145 3.531630039215088 C 6.410092830657959 3.765244960784912 6.721942901611328 3.892625093460083 7.053742408752441 3.8902149200439453 L 8.953791618347168 3.8766000270843506 C 9.391440391540527 3.8766000270843506 9.633440017700195 4.130554676055908 9.738740921020508 4.281944751739502 C 9.818940162658691 4.3972296714782715 9.872640609741211 4.52532958984375 9.89884090423584 4.657314300537109 L 9.804640769958496 4.563124656677246 C 9.69734001159668 4.455784320831299 9.523340225219727 4.455784320831299 9.416040420532227 4.563124656677246 C 9.308690071105957 4.670419692993164 9.308690071105957 4.8444294929504395 9.416040420532227 4.951724529266357 L 15.616484642028809 11.152199745178223 C 15.884284973144531 11.419899940490723 15.884284973144531 11.855600357055664 15.616484642028809 12.123350143432617 C 15.348884582519531 12.390999794006348 14.913435935974121 12.391050338745117 14.645735740661621 12.123700141906738 L 10.69633960723877 8.174300193786621 C 10.58903980255127 8.066949844360352 10.414989471435547 8.066949844360352 10.3077392578125 8.174300193786621 C 10.200439453125 8.281599998474121 10.200439453125 8.455599784851074 10.3077392578125 8.562899589538574 L 14.561635971069336 12.816849708557129 C 14.829435348510742 13.084600448608398 14.829435348510742 13.520299911499023 14.561635971069336 13.788000106811523 C 14.431985855102539 13.917699813842773 14.259535789489746 13.989150047302246 14.07608699798584 13.989150047302246 C 13.8926362991333 13.989150047302246 13.720186233520508 13.917699813842773 13.590537071228027 13.788000106811523 L 9.557940483093262 9.755450248718262 C 9.450590133666992 9.648150444030762 9.276640892028809 9.648150444030762 9.169340133666992 9.755450248718262 C 9.062041282653809 9.862750053405762 9.061991691589355 10.036749839782715 9.169340133666992 10.144049644470215 L 12.473687171936035 13.448399543762207 C 12.741188049316406 13.71619987487793 12.741137504577637 14.151650428771973 12.473487854003906 14.419300079345703 C 12.20563793182373 14.687049865722656 11.769989013671875 14.687000274658203 11.502288818359375 14.419300079345703 L 7.913541316986084 10.830550193786621 C 7.806241989135742 10.723199844360352 7.632241725921631 10.723199844360352 7.524941921234131 10.830550193786621 C 7.4175920486450195 10.937849998474121 7.4175920486450195 11.111849784851074 7.524941921234131 11.219149589538574 L 10.186939239501953 13.881150245666504 L 10.186989784240723 13.881199836730957 C 10.454739570617676 14.14894962310791 10.454739570617676 14.584600448608398 10.186989784240723 14.852350234985352 C 9.919290542602539 15.120100021362305 9.483590126037598 15.120100021362305 9.215840339660645 14.852350234985352 L 4.399804592132568 10.036499977111816 C 3.4728610515594482 9.109600067138672 2.887336492538452 7.881049633026123 2.751121759414673 6.577249526977539 C 2.7445716857910156 6.514549732208252 2.7167117595672607 6.45604944229126 2.672111749649048 6.411499500274658 L 0.46910473704338074 4.2084245681762695 C 0.3618083596229553 4.1010894775390625 0.18780000507831573 4.1010894775390625 0.08050310611724854 4.2084245681762695 C -0.026835545897483826 4.3157243728637695 -0.026835545897483826 4.489729404449463 0.08050310611724854 4.597029685974121 L 2.215527057647705 6.732049465179443 C 2.383281946182251 8.12440013885498 3.018606185913086 9.432499885559082 4.011205196380615 10.425100326538086 L 4.416459560394287 10.830349922180176 C 4.265580177307129 11.039250373840332 4.183945178985596 11.289299964904785 4.183945178985596 11.55204963684082 C 4.183945178985596 11.88224983215332 4.312545299530029 12.192749977111816 4.546039581298828 12.426199913024902 C 4.787054538726807 12.66724967956543 5.1035943031311035 12.787750244140625 5.420243740081787 12.787750244140625 C 5.4513936042785645 12.787750244140625 5.482493877410889 12.786250114440918 5.513543605804443 12.783900260925293 C 5.502943992614746 12.849550247192383 5.497243881225586 12.916399955749512 5.497243881225586 12.984199523925781 C 5.497243881225586 13.314399719238281 5.6258440017700195 13.624899864196777 5.859344005584717 13.858349800109863 C 6.100343227386475 14.09939956665039 6.416943073272705 14.219900131225586 6.7335429191589355 14.219900131225586 C 6.795142650604248 14.219900131225586 6.856742858886719 14.215200424194336 6.9177422523498535 14.206100463867188 C 6.861742973327637 14.580849647521973 6.977542400360107 14.97659969329834 7.265442371368408 15.26449966430664 C 7.498941898345947 15.498000144958496 7.809391975402832 15.62660026550293 8.139641761779785 15.62660026550293 C 8.433941841125488 15.62660026550293 8.712441444396973 15.524200439453125 8.934891700744629 15.336649894714355 C 9.158690452575684 15.513799667358398 9.429940223693848 15.602700233459473 9.701390266418457 15.602700233459473 C 10.017940521240234 15.602700233459473 10.334589958190918 15.482150077819824 10.575639724731445 15.24114990234375 C 10.755189895629883 15.061599731445312 10.86768913269043 14.840049743652344 10.91348934173584 14.60789966583252 L 11.1135892868042 14.807950019836426 C 11.35463809967041 15.049050331115723 11.671138763427734 15.169500350952148 11.987788200378418 15.169500350952148 C 12.304388046264648 15.169500350952148 12.621037483215332 15.048999786376953 12.86208724975586 14.807950019836426 C 13.041637420654297 14.628450393676758 13.154136657714844 14.406949996948242 13.199936866760254 14.174750328063965 L 13.201836585998535 14.176650047302246 C 13.43533706665039 14.410149574279785 13.74583625793457 14.538749694824219 14.07608699798584 14.538749694824219 C 14.40638542175293 14.538749694824219 14.716785430908203 14.410149574279785 14.950335502624512 14.176650047302246 C 15.303284645080566 13.823699951171875 15.397435188293457 13.30875015258789 15.233484268188477 12.869000434875488 C 15.515084266662598 12.845749855041504 15.79018497467041 12.726949691772461 16.00513458251953 12.51194953918457 C 16.464183807373047 12.052900314331055 16.485734939575195 11.319999694824219 16.070484161376953 10.834799766540527 L 16.480134963989258 10.425100326538086 C 17.472732543945312 9.432499885559082 18.108083724975586 8.124349594116211 18.275882720947266 6.731999397277832 L 19.919530868530273 5.088349342346191 C 20.026830673217773 4.981064319610596 20.026830673217773 4.807099342346191 19.91948127746582 4.699799537658691 Z M 4.9346842765808105 12.037599563598633 C 4.8049798011779785 11.907899856567383 4.733534812927246 11.73544979095459 4.733534812927246 11.55204963684082 C 4.733534812927246 11.437150001525879 4.761559963226318 11.32664966583252 4.814319610595703 11.22819995880127 L 5.744043827056885 12.157950401306152 C 5.645643711090088 12.210700035095215 5.535093784332275 12.238750457763672 5.420243740081787 12.238750457763672 C 5.236844062805176 12.238800048828125 5.064394474029541 12.167349815368652 4.9346842765808105 12.037599563598633 Z M 6.247993469238281 13.469799995422363 C 6.118293285369873 13.340100288391113 6.046843528747559 13.16765022277832 6.046843528747559 12.984199523925781 C 6.046843528747559 12.839949607849121 6.091593265533447 12.702850341796875 6.173643112182617 12.587599754333496 L 7.130092144012451 13.544050216674805 C 6.862192630767822 13.733949661254883 6.487843036651611 13.709650039672852 6.247993469238281 13.469799995422363 Z M 7.654091835021973 14.875900268554688 C 7.414191722869873 14.6360502243042 7.389941692352295 14.261750221252441 7.5798420906066895 13.993800163269043 L 8.536291122436523 14.950249671936035 C 8.421041488647461 15.03225040435791 8.283941268920898 15.07705020904541 8.139641761779785 15.07705020904541 C 7.956241607666016 15.07705020904541 7.783792018890381 15.005599975585938 7.654091835021973 14.875900268554688 Z " fill="black" stroke="none" stroke-width="0.6249998807908695" stroke-linecap="butt" stroke-linejoin="miter" transform="matrix(1 0 0 1 2 4.1867)" class="" data-mantain-aspect-ratio="true"/></svg>