<svg xmlns="http://www.w3.org/2000/svg" xmlns:xlink="http://www.w3.org/1999/xlink" width="100%" height="100%" clipboard-id="document_1bs6v2b"><defs>
            
        </defs><path d="M 16.542713165283203 7.263666152954102 C 16.413209915161133 9.778693199157715 16.34599494934082 11.098708152770996 15.541583061218262 12.568693161010742 C 14.804482460021973 13.916183471679688 13.795866012573242 14.711167335510254 11.781192779541016 16.303693771362305 C 10.545966148376465 17.27867889404297 9.447729110717773 17.993703842163086 8.658287048339844 18.473690032958984 C 8.615985870361328 18.44370460510254 8.571128845214844 18.411211013793945 8.526318550109863 18.376205444335938 C 8.48150634765625 18.411211013793945 8.436649322509766 18.44370460510254 8.394349098205566 18.473690032958984 C 7.604907512664795 17.993703842163086 6.506669998168945 17.27867889404297 5.2714433670043945 16.303693771362305 C 3.2567596435546875 14.711167335510254 2.248171806335449 13.916183471679688 1.5110291242599487 12.568693161010742 C 0.7066515684127808 11.098708152770996 0.6394120454788208 9.778693199157715 0.5099163055419922 7.263666152954102 C 0.40282994508743286 5.186180591583252 0.5522494316101074 3.4636847972869873 0.7091431617736816 2.281183958053589 C 3.2841527462005615 1.6786857843399048 5.859143257141113 1.0761829614639282 8.434186935424805 0.4736849069595337 C 8.464076042175293 0.48118335008621216 8.496428489685059 0.4886864721775055 8.526318550109863 0.49618491530418396 C 8.556207656860352 0.4886864721775055 8.588560104370117 0.48118335008621216 8.618449211120605 0.4736849069595337 C 11.19349193572998 1.0761829614639282 13.768486976623535 1.6786857843399048 16.343482971191406 2.281183958053589 C 16.5003662109375 3.4636847972869873 16.64981460571289 5.186180591583252 16.542713165283203 7.263666152954102 Z " stroke="#313539" stroke-width="0.7105265030240538" stroke-miterlimit="10" stroke-linecap="round" stroke-linejoin="round" fill="none" transform="matrix(1 0 0 1 3.47368 2.52631)" class=""/><path d="M 5.684211730957031 8.363702774047852 L 8.056801795959473 10.894740104675293 L 11.368424415588379 7.578949928283691 " stroke="#313539" stroke-width="0.7105265030240538" stroke-miterlimit="10" stroke-linecap="round" stroke-linejoin="round" fill="none" transform="matrix(1 0 0 1 3.47368 2.52631)" class=""/></svg>