<svg xmlns="http://www.w3.org/2000/svg">
  <path d="M21.92 8.886a.275.275 0 00-.39 0l-1.71 1.712a.275.275 0 00-.08.166 5.752 5.752 0 01-1.648 3.46l-.407.406-2.956-2.956c.187.045.37.067.548.067.26 0 .51-.048.744-.144a.275.275 0 10-.208-.508c-1.131.463-2.436-.77-2.6-.931l-.786-.786a1.524 1.524 0 00-.237-1.217 1.485 1.485 0 00-1.238-.641l-1.902.013h-.005a.68.68 0 01-.483-.199.68.68 0 01-.202-.486v-.029c0-.369.289-.67.658-.684l3.464-.136c1.25-.05 2.496.33 3.506 1.068.11.08.261.069.357-.027l1.819-1.82a.275.275 0 10-.389-.388L16.12 6.482a6.15 6.15 0 00-3.659-1.039l-3.464.137-.024.001-1.314-1.314a.275.275 0 10-.389.389L8.383 5.77a1.23 1.23 0 00-.573 1.043v.029c0 .331.13.643.365.876.235.234.547.361.879.359l1.9-.014a.93.93 0 01.785.406c.08.115.134.243.16.375l-.094-.094a.275.275 0 10-.389.388l6.2 6.2a.687.687 0 01-.97.972l-3.95-3.949a.275.275 0 10-.388.389l4.254 4.254a.687.687 0 01-.971.97l-4.033-4.032a.275.275 0 00-.389.389l3.305 3.304a.687.687 0 01-.972.971l-3.588-3.589a.275.275 0 10-.39.389l2.663 2.662h0a.687.687 0 01-.971.971L6.4 14.223a5.752 5.752 0 01-1.649-3.46.274.274 0 00-.079-.165L2.47 8.395a.275.275 0 10-.388.389l2.135 2.135a6.304 6.304 0 001.795 3.693l.405.405c-.15.209-.232.459-.232.722a1.232 1.232 0 001.33 1.232 1.228 1.228 0 00.346 1.074 1.232 1.232 0 001.058.348 1.235 1.235 0 002.017 1.13 1.233 1.233 0 001.64-.095c.18-.18.293-.401.338-.633l.2.2c.242.24.558.361.875.361a1.233 1.233 0 001.212-.995l.002.002c.233.234.544.362.874.362a1.238 1.238 0 001.157-1.67 1.238 1.238 0 00.837-2.034l.41-.41a6.305 6.305 0 001.796-3.692l1.644-1.644a.275.275 0 000-.389zM6.934 16.224a.682.682 0 01-.12-.81l.929.93a.683.683 0 01-.81-.12zm1.313 1.432a.682.682 0 01-.074-.882l.956.957a.687.687 0 01-.882-.075zm1.406 1.407a.687.687 0 01-.074-.882l.956.956a.681.681 0 01-.882-.074z" fill="none" stroke="#313539" stroke-width=".35" data-mantain-aspect-ratio="true"/>
</svg>
