<svg xmlns="http://www.w3.org/2000/svg" viewBox="0 0 24 24">
  <path d="M10.48 16.8c.38.15.91.34 1.58.54 1.8.52 2.12.33 2.26.21.24-.21.33-.6.25-.9-.09-.35-.42-.6-1.7-1.07-.58-.22-1.4-.49-2.43-.74a98.76 98.76 0 00-4-.17l.05-.6a.22.22 0 00-.23-.2l-2.16.04c-.12 0-.22.1-.22.22l.02 5.74c0 .13.1.23.23.22l2.12-.08c.12 0 .22-.1.22-.22l.02-.6c.98-.01 1.71.16 2.2.32 1.36.46 1.7 1.1 3.1 1.37.4.08 1.02.2 1.76.03.85-.21 1.03-.62 2.47-1.66.94-.7 2.28-1.55 2.46-1.67 1.1-.7 1.56-.94 1.63-1.44.07-.5-.26-1.07-.71-1.3-.42-.21-.8-.06-2.13.3-.77.2-1.4.37-1.8.46M11.95 4.08a3.26 3.26 0 00-2.52-1.07c-1.57.1-2.38 1.48-2.52 1.73-.95 1.73.06 3.7.37 4.3.6 1.18 1.46 1.86 2.08 2.35 1 .8 1.97 1.25 2.64 1.5 1.05-.47 3.62-1.77 4.8-4.4.65-1.43.51-2.42.47-2.65-.05-.33-.31-1.92-1.67-2.56-1.13-.54-2.6-.22-3.65.8zM6.44 14.67l.05 4.53" stroke="#313539" stroke-width=".6" stroke-miterlimit="10" stroke-linecap="round" stroke-linejoin="round" fill="none"/>
</svg>
