<svg xmlns="http://www.w3.org/2000/svg">
  <path d="M20.02 9.79c-.13 2.52-.2 3.84-1 5.3-.74 1.35-1.75 2.15-3.77 3.74A31.2 31.2 0 0112.13 21a3.52 3.52 0 01-.13-.1l-.13.1a31.2 31.2 0 01-3.12-2.17c-2.02-1.6-3.03-2.39-3.77-3.73-.8-1.47-.87-2.8-1-5.31-.1-2.08.05-3.8.2-4.98L11.91 3l.09.02.1-.02 7.72 1.8c.15 1.19.3 2.91.2 4.99z" stroke="#313539" stroke-width=".71" stroke-miterlimit="10" stroke-linecap="round" stroke-linejoin="round" fill="none"/>
  <path d="M9.16 10.89l2.37 2.53 3.31-3.31" stroke="#313539" stroke-width=".71" stroke-miterlimit="10" stroke-linecap="round" stroke-linejoin="round" fill="none"/>
</svg>
