<svg xmlns="http://www.w3.org/2000/svg" xmlns:xlink="http://www.w3.org/1999/xlink" width="100%" height="100%" clipboard-id="document_1bs6v2b"><defs>
            
        </defs><path d="M 11.865609169006348 17.94123649597168 C 12.237444877624512 18.08502769470215 12.77564525604248 18.280170440673828 13.438191413879395 18.47304344177246 C 15.238157272338867 18.99745750427246 15.562803268432617 18.810287475585938 15.70093822479248 18.689292907714844 C 15.946157455444336 18.474199295043945 16.03074836730957 18.090152740478516 15.954208374023438 17.79458999633789 C 15.86268424987793 17.439088821411133 15.529409408569336 17.180578231811523 14.252121925354004 16.71267318725586 C 13.668424606323242 16.49869728088379 12.845290184020996 16.225936889648438 11.822428703308105 15.97886848449707 C 11.032111167907715 15.929215431213379 10.225654602050781 15.888154029846191 9.404829978942871 15.85676097869873 C 8.872366905212402 15.836226463317871 8.346259117126465 15.819666862487793 7.825893402099609 15.807684898376465 C 7.8403000831604 15.607381820678711 7.85408878326416 15.407116889953613 7.868496417999268 15.207386016845703 C 7.8587117195129395 15.090981483459473 7.7591376304626465 15.00253677368164 7.641689777374268 15.00481128692627 C 6.921015739440918 15.018523216247559 6.200920581817627 15.03219985961914 5.48024845123291 15.04591178894043 C 5.358217239379883 15.048186302185059 5.260376453399658 15.147489547729492 5.260953903198242 15.268445014953613 C 5.268426895141602 17.181734085083008 5.276477813720703 19.095029830932617 5.283949851989746 21.008319854736328 C 5.28452730178833 21.13385581970215 5.389880180358887 21.233701705932617 5.515956878662109 21.228578567504883 C 6.221066474914551 21.20172882080078 6.926792621612549 21.174917221069336 7.6319050788879395 21.148109436035156 C 7.753359794616699 21.143526077270508 7.848927974700928 21.043682098388672 7.846617221832275 20.923269271850586 C 7.855822563171387 20.726430892944336 7.865607261657715 20.529552459716797 7.874813556671143 20.33267593383789 C 8.849332809448242 20.31499481201172 9.58267879486084 20.489608764648438 10.07022762298584 20.65054702758789 C 11.435609817504883 21.101884841918945 11.775203704833984 21.747249603271484 13.16246509552002 22.017738342285156 C 13.576324462890625 22.098745346069336 14.194536209106445 22.22370719909668 14.93018913269043 22.043970108032227 C 15.783834457397461 21.835693359375 15.961103439331055 21.429420471191406 17.397281646728516 20.381214141845703 C 18.345338821411133 19.689041137695312 19.676746368408203 18.838253021240234 19.864377975463867 18.718416213989258 C 20.9649715423584 18.015966415405273 21.422595977783203 17.77975845336914 21.492813110351562 17.275300979614258 C 21.56188201904297 16.77943229675293 21.23033905029297 16.210529327392578 20.77730369567871 15.979449272155762 C 20.359399795532227 15.766046524047852 19.980670928955078 15.912113189697266 18.65557861328125 16.27273941040039 C 17.877357482910156 16.485023498535156 17.246475219726562 16.64191436767578 16.854459762573242 16.737211227416992 " stroke="#313539" stroke-width="0.6" stroke-miterlimit="10" stroke-linecap="round" stroke-linejoin="round" fill="none" transform="matrix(1 9.92105e-16 -9.92105e-16 1 -1.38144 -1.13602)" class=""/><path d="M 13.327561378479004 5.218629360198975 C 13.203835487365723 5.080534934997559 12.247152328491211 4.04542350769043 10.811546325683594 4.142416954040527 C 9.237228393554688 4.249118328094482 8.43481731414795 5.624323844909668 8.294951438903809 5.8788251876831055 C 7.342311382293701 7.610070705413818 8.351344108581543 9.57243824005127 8.665051460266113 10.182982444763184 C 9.268893241882324 11.357343673706055 10.124848365783691 12.040922164916992 10.737278938293457 12.530511856079102 C 11.739456176757812 13.331114768981934 12.714552879333496 13.775595664978027 13.377098083496094 14.022124290466309 C 14.43336009979248 13.556495666503906 16.998868942260742 12.253783226013184 18.18752098083496 9.620357513427734 C 18.832231521606445 8.192110061645508 18.694061279296875 7.210657119750977 18.65608024597168 6.9789581298828125 C 18.601959228515625 6.646299362182617 18.341215133666992 5.0525689125061035 16.978721618652344 4.4111714363098145 C 15.849355697631836 3.879940986633301 14.378660202026367 4.197770595550537 13.327561378479004 5.218629360198975 Z " stroke="#313539" stroke-width="0.6" stroke-miterlimit="10" stroke-linecap="round" stroke-linejoin="round" fill="none" transform="matrix(1 9.92105e-16 -9.92105e-16 1 -1.38144 -1.13602)" class=""/><path d="M 7.826201438903809 15.807533264160156 L 7.875121593475342 20.331945419311523 " stroke="#313539" stroke-width="0.6" stroke-miterlimit="10" stroke-linecap="round" stroke-linejoin="round" fill="none" transform="matrix(1 9.92105e-16 -9.92105e-16 1 -1.38144 -1.13602)" class=""/></svg>